# xmcd CD database file
#
# Track frame offsets:
#	150
#	17100
#	37950
#	62850
#	73500
#	90075
#	102975
#	120975
#	142725
#	162750
#	182475
#	199800
#	222750
#	239475
#	258450
#	276150
#	292875
#
# Disc length: 4172 seconds
#
# Revision: 2
# Processed by: cddbd v1.4PL0 Copyright (c) Steve Scherf et al.
# Submitted via: jetAudio 5
#
DISCID=e6104a11
DTITLE=雜錦碟 - 追憶林振強 Disc 3
DYEAR=1900
DGENRE=
TTITLE0=不羈的風 - 張國榮
TTITLE1=甜蜜如軟糖 - 陳秀雯
TTITLE2=最後一夜 - 劉美君
TTITLE3=白金升降機 - 陳潔靈
TTITLE4=我要 - 葉德嫻
TTITLE5=Stand Up - 張國榮
TTITLE6=灰色 - 林憶蓮
TTITLE7=壞女孩 - 梅艷芳
TTITLE8=再度孤獨 - 甄妮
TTITLE9=天下無雙 - 陳奕迅
TTITLE10=倦 - 葉德嫻
TTITLE11=從不知 - 郭小霖
TTITLE12=舞會後 - 陳美齡
TTITLE13=微風中 - 孫明光
TTITLE14=千個太陽 - 葉德嫻-陳潔靈
TTITLE15=一個為你甘去蹈火海的人 - 鄭伊健
TTITLE16=當天那真我 - 陳潔靈
EXTD=
EXTT0=
EXTT1=
EXTT2=
EXTT3=
EXTT4=
EXTT5=
EXTT6=
EXTT7=
EXTT8=
EXTT9=
EXTT10=
EXTT11=
EXTT12=
EXTT13=
EXTT14=
EXTT15=
EXTT16=
PLAYORDER=
